<?xml version="1.0" encoding="UTF-8"?><svg id="Layer_1" xmlns="http://www.w3.org/2000/svg" xmlns:xlink="http://www.w3.org/1999/xlink" viewBox="0 0 193.66 215.49"><defs><style>.cls-1,.cls-2,.cls-3,.cls-4,.cls-5{fill:none;}.cls-6{fill:#444;}.cls-2{stroke:#79bc6f;}.cls-2,.cls-3,.cls-4,.cls-5{stroke-width:4px;}.cls-3{stroke:#cc8714;}.cls-4{stroke:#d74d3b;}.cls-5{stroke:#846caa;}.cls-7{clip-path:url(#clippath);}</style><clipPath id="clippath"><rect class="cls-1" x="18.51" y="5.29" width="166.5" height="197.88"/></clipPath></defs><g class="cls-7"><path class="cls-2" d="M123.1,201.16c33.09,0,59.91-43.4,59.91-96.94S156.19,7.29,123.1,7.29s-59.91,43.4-59.91,96.94,26.82,96.94,59.91,96.94h0Z"/><ellipse class="cls-5" cx="96.95" cy="103.24" rx="76.44" ry="54.39"/><ellipse class="cls-4" cx="112.22" cy="98.15" rx="69.66" ry="70.51"/><ellipse class="cls-3" cx="119.9" cy="114.68" rx="63.11" ry="65.84"/><path class="cls-6" d="M146.63,104.98l2.25-5.85,2.22,5.85h-4.47ZM141.59,110.47h2.87l1.3-3.29h6.24l1.34,3.29h2.93l-6.2-14.39h-2.21l-6.26,14.39h0ZM131.86,110.47h2.56v-12.15h4.41v-2.24h-11.38v2.24h4.41v12.15ZM122.55,97.26c-.56-.51-1.21-.9-1.96-1.16s-1.49-.39-2.22-.39c-.65,0-1.29.08-1.92.25s-1.19.43-1.69.77c-.5.35-.89.78-1.2,1.31s-.46,1.16-.46,1.89c0,.68.11,1.24.33,1.7.22.45.5.84.84,1.15.35.31.74.56,1.17.75s.87.35,1.3.49c.45.15.87.29,1.28.43.41.14.76.29,1.06.48.3.18.54.4.71.65.18.25.26.57.26.94s-.08.72-.23.99c-.16.26-.36.49-.61.66-.25.18-.53.3-.84.38-.31.07-.62.11-.92.11-.57,0-1.15-.14-1.74-.43-.59-.28-1.06-.67-1.41-1.16l-1.83,1.71c.57.68,1.3,1.19,2.19,1.53.89.35,1.81.52,2.74.52.7,0,1.38-.1,2.01-.29.64-.19,1.19-.47,1.67-.85.47-.38.85-.86,1.14-1.43.28-.58.43-1.25.43-2.02,0-.7-.13-1.29-.4-1.77-.26-.47-.6-.87-1.02-1.18-.41-.31-.87-.56-1.36-.75-.5-.19-.97-.36-1.43-.51-.41-.12-.78-.24-1.12-.36-.34-.12-.63-.26-.86-.43-.24-.16-.42-.36-.56-.59-.14-.23-.2-.51-.2-.83,0-.35.08-.65.23-.9.16-.25.36-.45.6-.61s.51-.27.81-.35c.3-.07.6-.11.89-.11.5,0,1,.12,1.49.36s.88.53,1.15.88l1.67-1.83h.01ZM97.09,110.47h9.9v-2.28h-7.34v-4.06h6.6v-2.15h-6.6v-3.66h6.97v-2.24h-9.53v14.39ZM91.21,97.91c-.29-.38-.63-.7-1.04-.97-.41-.27-.84-.5-1.3-.68-.46-.18-.94-.32-1.44-.41-.5-.09-.98-.13-1.44-.13-1.11,0-2.14.18-3.09.53s-1.77.85-2.47,1.5c-.7.65-1.25,1.44-1.65,2.37s-.6,1.97-.6,3.12.19,2.15.57,3.08.91,1.73,1.58,2.4c.68.67,1.49,1.19,2.43,1.56.94.37,1.97.56,3.1.56,1.23,0,2.31-.22,3.23-.66.92-.44,1.7-1.06,2.34-1.86l-2.05-1.44c-.37.5-.85.9-1.44,1.21s-1.28.46-2.05.46-1.42-.13-2.01-.39c-.6-.26-1.11-.62-1.54-1.09-.43-.47-.75-1.03-.98-1.68s-.35-1.37-.35-2.16c0-.74.12-1.44.36-2.07.24-.64.58-1.19,1.02-1.67.44-.47.97-.85,1.58-1.12.61-.27,1.29-.41,2.03-.41.58,0,1.18.12,1.79.36s1.1.61,1.48,1.13l1.95-1.54h0Z"/></g></svg>